# xmcd
# Track frame offsets:
# 150
# 14777
# 26958
# 40996
# 52260
# 78799
# 91911
# 109352
# 126269
# 145768
# 160233
# 185409
# 205257
# 221910
# 234437
# 261001
# 272163
# 288326
# 303826
# 322679
# 333802
#
# Disc length: 4783 seconds
# Revision: 0
# Processed by: cddbd v1.5.2PL0 Copyright (c) Steve Scherf et al.
# Submitted via: VisiTrax 2.10.2.252 - For more info visit www.synapsa.com
#
DISCID=3312ad15
DTITLE=Norsk Blues - !997-2007
DYEAR=2007
DGENRE=Blues
TTITLE0=Kid Andersen - Key to the highway
TTITLE1=Hungry John - Goin´to Paris
TTITLE2=Notodden Bluesband and Torhild Sivertsen - Island
TTITLE3=Good time Charlie - Mohair Sam
TTITLE4=Knut Reiersrud and Oslo Groove Company - I wonder why
TTITLE5=JT Lauritsen and The Buckshot Hunters - The Bug
TTITLE6=Björn Berge - Loser
TTITLE7=Reidar Larsen - You dot have to say goodbye
TTITLE8=R 6 B Express - Love at first sight
TTITLE9=Rita Engdalen - Jessie Mae Hemphill
TTITLE10=Kurt Slevigen - Annabelle
TTITLE11=Vidar Busk and His True Believers - Jam At Fagen´s
TTITLE12=Jolly Jumper and Big Moe and Dr Bekken - I had the blues so bad
TTITLE13=Buzz Brothers - Freight Train
TTITLE14=Ronnie Jacobsen - Double Trouble
TTITLE15=Steinar Albrigtsen - Mississippi Queen
TTITLE16=Peer Gynt band - X-.ray eyes
TTITLE17=Kåre Virud - Problemer opp og ned
TTITLE18=Tiger City Jukes - Escape
TTITLE19=Amund Maarud - SF Jump
TTITLE20=Kristin Berglund - I´ve been down there
EXTD=
EXTT0=
EXTT1=
EXTT2=
EXTT3=
EXTT4=
EXTT5=
EXTT6=
EXTT7=
EXTT8=
EXTT9=
EXTT10=
EXTT11=
EXTT12=
EXTT13=
EXTT14=
EXTT15=
EXTT16=
EXTT17=
EXTT18=
EXTT19=
EXTT20=
PLAYORDER=
